<?xml version="1.0" encoding="utf-8"?>
<!-- Generator: Adobe Illustrator 16.0.0, SVG Export Plug-In . SVG Version: 6.00 Build 0)  -->
<!DOCTYPE svg PUBLIC "-//W3C//DTD SVG 1.1//EN" "http://www.w3.org/Graphics/SVG/1.1/DTD/svg11.dtd">
<svg version="1.1" id="Layer_1" xmlns="http://www.w3.org/2000/svg" xmlns:xlink="http://www.w3.org/1999/xlink" x="0px" y="0px"
	 width="512px" height="512px" viewBox="0 0 512 512" enable-background="new 0 0 512 512" xml:space="preserve">
<g id="Page-1">
	<g id="_x30_91---Search-File">
		<path id="Shape" fill="#2C302F" d="M8.533,204.8v264.533C8.562,492.886,27.647,511.972,51.2,512h307.2
			c11.322,0.032,22.188-4.466,30.174-12.493c3.233-3.348,3.188-8.67-0.104-11.962c-3.292-3.291-8.614-3.338-11.962-0.104
			c-4.795,4.813-11.314,7.511-18.107,7.492H51.2c-14.139,0-25.6-11.462-25.6-25.601V208.674l103.253-90.36
			c9.446-8.264,14.774-20.268,14.567-32.816c-0.207-12.549-5.929-24.371-15.643-32.318L83.626,17.066H358.4
			c14.139,0,25.6,11.462,25.6,25.6v119.467c0,4.713,3.82,8.533,8.533,8.533s8.533-3.82,8.533-8.533V42.667
			C401.038,19.114,381.953,0.028,358.4,0H59.733c-4.012,0-7.482,2.795-8.337,6.716L8.729,202.982
			C8.601,203.58,8.535,204.189,8.533,204.8z M65.109,23.961l51.866,42.437c5.823,4.768,9.253,11.857,9.378,19.382
			s-3.068,14.725-8.73,19.683l-86.724,75.887L65.109,23.961z"/>
		<path id="Shape_1_" fill="#2C302F" d="M59.733,221.867c0-4.713-3.821-8.533-8.533-8.533c-4.713,0-8.534,3.82-8.534,8.533v17.067
			c0,4.712,3.821,8.533,8.534,8.533c4.712,0,8.533-3.821,8.533-8.533V221.867z"/>
		<path id="Shape_2_" fill="#2C302F" d="M51.2,264.533c-4.713,0-8.534,3.82-8.534,8.533v153.601c0,4.713,3.821,8.533,8.534,8.533
			c4.712,0,8.533-3.82,8.533-8.533V273.066C59.733,268.354,55.913,264.533,51.2,264.533z"/>
		<path id="Shape_3_" fill="#2C302F" d="M187.733,76.8c4.713,0,8.533-3.82,8.533-8.533s-3.82-8.533-8.533-8.533h-17.067
			c-4.712,0-8.533,3.82-8.533,8.533s3.821,8.533,8.533,8.533H187.733z"/>
		<path id="Shape_4_" fill="#2C302F" d="M341.334,59.733H221.867c-4.713,0-8.533,3.82-8.533,8.533s3.82,8.533,8.533,8.533h119.467
			c4.712,0,8.533-3.82,8.533-8.533S346.046,59.733,341.334,59.733z"/>
		<path id="Shape_5_" fill="#2C302F" d="M153.6,119.467c0,4.713,3.82,8.533,8.533,8.533h34.133c4.713,0,8.533-3.82,8.533-8.533
			s-3.82-8.533-8.533-8.533h-34.133C157.42,110.934,153.6,114.754,153.6,119.467z"/>
		<path id="Shape_6_" fill="#2C302F" d="M341.334,110.934H230.4c-4.713,0-8.533,3.82-8.533,8.533S225.687,128,230.4,128h110.934
			c4.712,0,8.533-3.82,8.533-8.533S346.046,110.934,341.334,110.934z"/>
		<path id="Shape_7_" fill="#2C302F" d="M354.688,218.453c-14.867-14.92-34-24.856-54.758-28.433
			c-3.031-0.588-6.143,0.508-8.138,2.865c-1.994,2.357-2.56,5.607-1.479,8.499s3.639,4.975,6.69,5.447
			c41.569,7.338,71.489,44.023,70.317,86.22c-1.17,42.195-33.078,77.165-74.99,82.188c-41.913,5.021-81.178-21.42-92.285-62.146
			c-11.106-40.725,9.299-83.439,47.959-100.391c4.167-1.975,6.012-6.901,4.167-11.127c-1.845-4.225-6.713-6.221-10.993-4.506
			c-41.14,18.022-65.734,60.749-60.655,105.375c5.079,44.626,38.645,80.733,82.782,89.05c44.138,8.316,88.543-13.1,109.514-52.817
			c20.971-39.717,13.613-88.465-18.147-120.223H354.688z"/>
		<path id="Shape_8_" fill="#2C302F" d="M422.741,383.002l-22.954-22.964c34.964-59.286,20.386-135.322-34.026-177.473
			c-54.413-42.15-131.68-37.26-180.345,11.414c-48.665,48.673-53.541,125.941-11.381,180.346s118.2,68.97,177.479,33.995
			l22.955,22.946c-1.588,5.863,0.074,12.129,4.36,16.435l54.297,54.298c6.401,6.401,15.084,9.998,24.137,9.998
			c9.054,0,17.735-3.597,24.137-9.998l12.066-12.066c13.325-13.329,13.325-34.936,0-48.265l-54.307-54.306
			C434.856,383.084,428.6,381.422,422.741,383.002L422.741,383.002z M197.803,375.321c-46.651-46.655-46.648-122.295,0.006-168.948
			s122.294-46.653,168.948,0s46.657,122.293,0.006,168.948c-46.698,46.571-122.281,46.556-168.96-0.034V375.321z M378.829,387.396
			c4.01-4.064,7.761-8.376,11.229-12.911l18.936,18.944l-12.066,12.065l-12.074,12.032l-18.944-18.936
			c4.536-3.471,8.851-7.222,12.919-11.229L378.829,387.396z M486.4,465.801c0.012,4.528-1.789,8.873-5.001,12.066l-12.066,12.065
			c-6.754,6.451-17.387,6.451-24.141,0l-54.298-54.306l36.199-36.198l54.306,54.306C484.611,456.927,486.412,461.271,486.4,465.801
			L486.4,465.801z"/>
	</g>
</g>
</svg>
