<?xml version="1.0" encoding="UTF-8"?>
<svg xmlns="http://www.w3.org/2000/svg" viewBox="0 0 512 512" width="512" height="512"><g id="Outline"><path d="M472,64H372.38a31.988,31.988,0,0,0-21.373,8.186L324.467,96H144a24.027,24.027,0,0,0-24,24v24H95.75a8,8,0,0,0-8,8.007L87.8,208h-50a21.313,21.313,0,0,0-19.916,28.917l14.64,38.34,14.948-5.708L32.832,231.206A5.317,5.317,0,0,1,37.8,224H351.087a16.032,16.032,0,0,1,15.067,10.618l68.93,193.005A30.655,30.655,0,0,0,437.047,432H120.525a16.09,16.09,0,0,1-14.947-10.292L53.43,285.146l-14.948,5.708L90.631,427.416A32.178,32.178,0,0,0,120.525,448H465.3A30.735,30.735,0,0,0,496,417.3V344H480v73.3A14.717,14.717,0,0,1,465.3,432H464a14.737,14.737,0,0,1-13.848-9.758L445.066,408H456a8,8,0,0,0,8-8V152a8,8,0,0,0-8-8H136V120a8.009,8.009,0,0,1,8-8H327.53a8,8,0,0,0,5.343-2.046L361.688,84.1A16.01,16.01,0,0,1,372.38,80H472a8.009,8.009,0,0,1,8,8V328h16V88A24.027,24.027,0,0,0,472,64Zm-24,96V392h-8.648L424,349.015V184H408V304.214l-24-67.2V184H368v28.873A31.92,31.92,0,0,0,351.087,208H344V184H328v24H304V184H288v24H264V184H248v24H224V184H208v24H184V184H168v24H144V184H128v24H103.8l-.044-48Zm-8-40V104h16v16Zm-32,0V104h16v16Zm-32,0V104h16v16ZM104.572,370.971l-35.2-88,14.856-5.942,35.2,88ZM71.428,245.029l6.4,16-14.855,5.942-6.4-16ZM32,184H16v-8A80.091,80.091,0,0,1,96,96v16a64.072,64.072,0,0,0-64,64Z"/></g></svg>
